<?xml version="1.0" encoding="UTF-8"?>
<svg version="1.1" xmlns="http://www.w3.org/2000/svg" width="512" height="512">
<path d="M0 0 C6.09451461 5.01148294 10.10938248 10.48033028 11.60546875 18.30078125 C11.8064207 20.8815784 11.92818234 23.40485741 11.98046875 25.98828125 C12.01785156 26.63861328 12.05523438 27.28894531 12.09375 27.95898438 C12.18191057 33.2339251 10.96653198 37.97270338 9.44711208 42.98712349 C9.22454716 43.73150498 9.00198223 44.47588647 8.77267292 45.24282498 C6.2107817 53.7326882 3.42174962 62.14599276 0.61573792 70.55758667 C0.02560785 72.33387714 -0.56426934 74.11025164 -1.1539188 75.8867017 C-2.75879514 80.71922137 -4.36733238 85.55051528 -5.97655261 90.38158989 C-7.7176135 95.61057448 -9.45527527 100.84068871 -11.19345093 106.07063293 C-15.38027547 118.66568842 -19.57275593 131.25885827 -23.76581225 143.8518402 C-25.74339635 149.79157183 -27.72032845 155.73152046 -29.69731331 161.67145157 C-36.27224317 181.4254113 -42.84846518 201.17894007 -49.42896938 220.93104362 C-49.85339748 222.20502429 -50.27782519 223.47900509 -50.70225251 224.75298602 C-51.01793816 225.70056127 -51.01793816 225.70056127 -51.3400013 226.66727945 C-52.40611614 229.86737726 -53.47222555 233.06747688 -54.53833008 236.26757812 C-54.7498936 236.90261822 -54.96145712 237.53765832 -55.17943165 238.19194206 C-62.04704663 258.8063241 -68.9062956 279.4234766 -75.76064613 300.04227259 C-83.01964706 321.87820211 -90.28630613 343.71157141 -97.56163937 365.54206574 C-101.52295367 377.42908874 -105.48084298 389.31722786 -109.42996025 401.20830917 C-112.78986452 411.32512486 -116.15693672 421.43951874 -119.53336912 431.55083089 C-121.25487213 436.70689076 -122.9729758 441.86401738 -124.68190575 447.02425957 C-126.24767952 451.75195848 -127.82319474 456.47629484 -129.40637887 461.19819094 C-129.97594837 462.90256808 -130.54200319 464.60812486 -131.10408609 466.31498562 C-136.5663908 482.88948408 -142.15668073 496.9888546 -158.39453125 505.30078125 C-166.26515441 509.2160488 -178.02373503 508.4937725 -186.26953125 505.80078125 C-203.74412195 498.1938818 -209.5040017 483.38398571 -217.64453125 467.36328125 C-219.2521861 464.20745414 -220.86191658 461.05269112 -222.47265625 457.8984375 C-223.07796173 456.71225327 -223.07796173 456.71225327 -223.69549561 455.50210571 C-226.54362479 449.93247957 -229.44069029 444.39024256 -232.36328125 438.859375 C-237.09228166 429.90843963 -241.71963481 420.907703 -246.32211304 411.89117432 C-248.61557668 407.39866788 -250.91311027 402.90824451 -253.2109375 398.41796875 C-253.66257767 397.5353537 -254.11421783 396.65273865 -254.57954407 395.74337769 C-258.7596589 387.57903625 -262.97750893 379.43471853 -267.20898438 371.296875 C-270.45372484 365.05314956 -273.68337013 358.80201787 -276.8984375 352.54296875 C-277.29109299 351.77864532 -277.68374847 351.0143219 -278.08830261 350.22683716 C-280.36115457 345.80171542 -282.63396977 341.37657636 -284.89862061 336.94725037 C-285.61704204 335.55328538 -286.34364237 334.16350656 -287.07818604 332.77796936 C-289.04479791 329.05092439 -290.82135998 325.33067035 -292.41235352 321.42700195 C-298.67537298 306.80074949 -307.69816829 301.85973191 -321.83203125 295.48828125 C-323.87958216 294.51275562 -325.92433054 293.53132705 -327.96630859 292.54418945 C-331.97055146 290.6153543 -335.98557906 288.71338937 -340.01416016 286.8359375 C-346.62178721 283.74415149 -353.07357361 280.40266642 -359.51953125 276.98828125 C-361.59666738 275.90565272 -363.67480288 274.82493953 -365.75390625 273.74609375 C-366.80513672 273.19985352 -367.85636719 272.65361328 -368.93945312 272.09082031 C-375.87409188 268.49805806 -382.82269359 264.93238191 -389.76953125 261.36328125 C-401.64729667 255.26034189 -413.51713763 249.14263344 -425.37329102 242.99780273 C-432.04478802 239.54241817 -438.72489552 236.10465366 -445.4140625 232.68359375 C-447.75055119 231.48718334 -450.08694776 230.29059319 -452.42333984 229.09399414 C-453.91183266 228.3325618 -455.40090058 227.57225234 -456.890625 226.81323242 C-461.74236933 224.34117966 -466.57831543 221.84140337 -471.39453125 219.30078125 C-472.481362 218.72858856 -472.481362 218.72858856 -473.59014893 218.14483643 C-475.77136902 216.98729883 -477.94158168 215.8113674 -480.109375 214.62890625 C-481.09155754 214.10884506 -481.09155754 214.10884506 -482.09358215 213.57827759 C-490.94089793 208.67907873 -496.81332405 200.01302722 -499.796875 190.41015625 C-502.08403386 178.51095066 -501.23525435 168.59475399 -494.39453125 158.30078125 C-493.67265625 157.20765625 -492.95078125 156.11453125 -492.20703125 154.98828125 C-486.05503645 149.10970844 -479.10731843 145.36094409 -471.14387035 142.46600819 C-470.4504911 142.21027098 -469.75711185 141.95453377 -469.0427211 141.69104694 C-460.8225549 138.68515591 -452.52262121 135.91755947 -444.21760559 133.15715027 C-442.43773655 132.56309058 -440.6579546 131.96876989 -438.87825125 131.37421399 C-434.03367032 129.75659321 -429.18786561 128.14266766 -424.34183395 126.52939904 C-419.09857754 124.78316376 -413.85647961 123.03345697 -408.61422729 121.28421021 C-398.36588866 117.86514205 -388.11647802 114.44929873 -377.86667166 111.03463342 C-369.53912917 108.26029418 -361.21197978 105.48477809 -352.88510704 102.70842934 C-351.69808852 102.31265434 -350.51107 101.91687935 -349.28808123 101.50911117 C-346.87650053 100.70503778 -344.46492074 99.90096171 -342.05334183 99.09688298 C-320.11846517 91.78341336 -298.18246417 84.47332137 -276.24598538 77.16465923 C-256.22347385 70.49365671 -236.20200251 63.81954123 -216.18139648 57.14282227 C-193.66483749 49.63373401 -171.14763066 42.12659294 -148.62938613 34.62256032 C-146.23025059 33.82306084 -143.83111589 33.02355886 -141.43198204 32.22405434 C-139.66141213 31.63401864 -139.66141213 31.63401864 -137.85507313 31.03206303 C-129.53074192 28.25786197 -121.20687614 25.4822673 -112.88318825 22.7061367 C-102.75056542 19.32672891 -92.61723619 15.9494496 -82.48298655 12.5749233 C-77.31124572 10.85276495 -72.13983294 9.12963803 -66.96927834 7.40392113 C-62.24021347 5.82558554 -57.51024056 4.25000405 -52.77951547 2.67665187 C-51.06489674 2.10585941 -49.35061738 1.53404632 -47.63670657 0.96113171 C-45.31368966 0.18477603 -42.98948133 -0.58790167 -40.66492939 -1.3596468 C-39.99437382 -1.5847261 -39.32381826 -1.8098054 -38.63294283 -2.04170528 C-26.74160143 -5.97358145 -10.71449514 -7.60327143 0 0 Z M-61.19921875 38.50390625 C-61.91006622 38.74179871 -62.6209137 38.97969116 -63.353302 39.22479248 C-65.65966481 39.99731342 -67.96462944 40.77391344 -70.26953125 41.55078125 C-71.69000946 42.02762596 -73.11058177 42.50419046 -74.53125 42.98046875 C-76.84281759 43.75546676 -79.15427399 44.53079105 -81.46545219 45.30694962 C-88.72943637 47.74560109 -95.99770985 50.17130067 -103.26721191 52.59344292 C-105.54461944 53.35226002 -107.8219818 54.11121251 -110.09933472 54.87019348 C-112.67148573 55.72741917 -115.2436403 56.58463421 -117.81580758 57.44181108 C-128.51805662 61.00834737 -139.21999086 64.57582802 -149.92195106 68.14323092 C-155.58869895 70.03218331 -161.25545966 71.92109726 -166.92222001 73.81001231 C-170.24181793 74.91654246 -173.56141489 76.02307547 -176.88101196 77.12960815 C-178.23963546 77.58248267 -179.59825897 78.03535717 -180.95688248 78.48823166 C-181.63553376 78.71444875 -182.31418504 78.94066585 -183.01340151 79.173738 C-256.42279077 103.64353442 -256.42279077 103.64353442 -329.83218002 128.11333084 C-330.50677181 128.33819481 -331.1813636 128.56305878 -331.87639757 128.7947368 C-333.22658461 129.24479907 -334.57677174 129.69486107 -335.92695896 130.14492279 C-339.22330787 131.24370445 -342.51965527 132.34249064 -345.81599927 133.44128704 C-352.03479281 135.51424136 -358.25361032 137.5871237 -364.47248459 139.65983582 C-374.85266964 143.11955888 -385.23262243 146.57996954 -395.61138916 150.04394531 C-398.08659562 150.8698416 -400.56181604 151.69569605 -403.03704262 152.52153206 C-405.20247952 153.24420678 -407.36771848 153.96747206 -409.53294373 154.69078064 C-421.21736719 158.59092409 -432.93631308 162.38218416 -444.67871094 166.10400391 C-447.16400553 166.89296367 -449.64659933 167.68997933 -452.12890625 168.48828125 C-453.20999664 168.82738525 -453.20999664 168.82738525 -454.31292725 169.17333984 C-462.45116396 171.66159533 -462.45116396 171.66159533 -469.39453125 176.30078125 C-469.78125629 179.70396162 -469.74961772 181.69334401 -468.00390625 184.6796875 C-464.29294144 188.40731832 -460.05507452 190.26246532 -455.33203125 192.48828125 C-453.3324634 193.45784335 -451.33377954 194.42923047 -449.3359375 195.40234375 C-447.83377686 196.1298584 -447.83377686 196.1298584 -446.30126953 196.87207031 C-442.07678881 198.9484739 -437.92192504 201.14711849 -433.76953125 203.36328125 C-426.63920959 207.15161509 -419.45481847 210.81358848 -412.20849609 214.37524414 C-406.57285973 217.16128472 -401.00793677 220.07232268 -395.44921875 223.0078125 C-386.65049016 227.65408348 -377.81127338 232.21654176 -368.95147705 236.74508667 C-364.71240339 238.91207304 -360.47538441 241.08307015 -356.23828125 243.25390625 C-354.97463242 243.90122963 -354.97463242 243.90122963 -353.68545532 244.56163025 C-333.21017682 255.05412262 -312.80101747 265.67528816 -292.39453125 276.30078125 C-285.27326194 270.48751337 -278.89556135 263.9279977 -272.41796875 257.421875 C-271.16221746 256.1642548 -269.90624236 254.90685803 -268.65005493 253.64967346 C-265.35857581 250.35439596 -262.07010894 247.05612863 -258.7822876 243.75720215 C-255.44130555 240.40598754 -252.09749319 237.05759968 -248.75390625 233.70898438 C-243.35275078 228.29906755 -237.95328752 222.88746895 -232.5561676 217.473526 C-231.16920828 216.08235901 -229.78187764 214.69156224 -228.39453125 213.30078125 C-227.49022369 212.39090958 -226.58591614 211.4810379 -225.65420532 210.54359436 C-223.79450391 208.69776944 -221.92363839 207.01432361 -219.89453125 205.36328125 C-216.65241055 202.63233724 -214.10270554 199.56447847 -211.39453125 196.30078125 C-209.45188414 194.55543423 -207.42698148 192.94403888 -205.39453125 191.30078125 C-203.08034834 189.23910864 -203.08034834 189.23910864 -201.39453125 187.30078125 C-201.39453125 186.64078125 -201.39453125 185.98078125 -201.39453125 185.30078125 C-200.73453125 185.30078125 -200.07453125 185.30078125 -199.39453125 185.30078125 C-199.39453125 184.64078125 -199.39453125 183.98078125 -199.39453125 183.30078125 C-198.73453125 183.30078125 -198.07453125 183.30078125 -197.39453125 183.30078125 C-197.39453125 182.64078125 -197.39453125 181.98078125 -197.39453125 181.30078125 C-196.73453125 181.30078125 -196.07453125 181.30078125 -195.39453125 181.30078125 C-195.39453125 180.64078125 -195.39453125 179.98078125 -195.39453125 179.30078125 C-194.52634766 178.93919922 -194.52634766 178.93919922 -193.640625 178.5703125 C-190.96793457 177.05966139 -189.44058571 175.32534046 -187.45703125 172.98828125 C-184.56579163 169.60271438 -181.56450264 166.42772135 -178.39453125 163.30078125 C-177.49734375 162.39199219 -176.60015625 161.48320312 -175.67578125 160.546875 C-174.75796875 159.62003906 -173.84015625 158.69320312 -172.89453125 157.73828125 C-171.97671875 156.80886719 -171.05890625 155.87945312 -170.11328125 154.921875 C-167.39453125 152.30078125 -167.39453125 152.30078125 -164.98828125 150.4609375 C-162.77445433 148.6171931 -161.10468534 146.87438988 -159.25332642 144.69377136 C-155.3740574 140.21825202 -151.25679637 136.02921597 -147.06005859 131.8527832 C-146.25752151 131.0501001 -145.45498444 130.24741699 -144.62812805 129.42041016 C-141.99794064 126.79091441 -139.36423706 124.16497111 -136.73046875 121.5390625 C-134.89135192 119.70181336 -133.05245768 117.86434137 -131.21377563 116.0266571 C-126.87981415 111.6961125 -122.54363676 107.36779852 -118.20635188 103.04058284 C-113.2847661 98.13017717 -108.36601882 93.21693239 -103.4475143 88.30344069 C-95.0359301 79.90052342 -86.62225721 71.49970185 -78.2061615 63.1013031 C-71.76597165 56.69036714 -71.76597165 56.69036714 -65.3671875 50.23828125 C-62.33640749 47.16411584 -59.3377839 44.17825511 -55.95703125 41.48828125 C-53.17125141 39.49130849 -53.17125141 39.49130849 -52.39453125 36.30078125 C-55.5009905 36.30078125 -58.28357006 37.51691896 -61.19921875 38.50390625 Z M-30.39453125 59.30078125 C-30.838297 59.74546879 -31.28206274 60.19015633 -31.73927593 60.64831924 C-42.54518466 71.47632764 -53.35387136 82.30155459 -64.16564465 93.12370682 C-69.39410126 98.35731621 -74.62161883 103.59185711 -79.84692383 108.82861328 C-84.40214235 113.39380972 -88.95912537 117.9572362 -93.51822168 122.51856017 C-95.9313858 124.93302612 -98.34366681 127.34835955 -100.75383568 129.76581573 C-103.44709333 132.4663263 -106.14345815 135.16369728 -108.84057617 137.86035156 C-109.63611404 138.65948471 -110.43165192 139.45861786 -111.251297 140.28196716 C-114.82595253 143.84997238 -118.3781859 147.22329614 -122.39453125 150.30078125 C-123.55441212 151.53986104 -124.68167679 152.8105092 -125.76953125 154.11328125 C-130.91687917 160.11666759 -136.48671461 165.4269838 -142.4609375 170.59765625 C-145.25114859 173.05529672 -147.86082315 175.57704504 -150.39453125 178.30078125 C-150.39453125 178.96078125 -150.39453125 179.62078125 -150.39453125 180.30078125 C-151.05453125 180.30078125 -151.71453125 180.30078125 -152.39453125 180.30078125 C-152.39453125 180.96078125 -152.39453125 181.62078125 -152.39453125 182.30078125 C-153.05453125 182.30078125 -153.71453125 182.30078125 -154.39453125 182.30078125 C-154.39453125 182.96078125 -154.39453125 183.62078125 -154.39453125 184.30078125 C-155.05453125 184.30078125 -155.71453125 184.30078125 -156.39453125 184.30078125 C-156.39453125 184.96078125 -156.39453125 185.62078125 -156.39453125 186.30078125 C-157.05453125 186.30078125 -157.71453125 186.30078125 -158.39453125 186.30078125 C-159.76653552 187.69288909 -159.76653552 187.69288909 -161.14453125 189.48828125 C-163.93512071 192.86957943 -167.01745876 195.49852961 -170.39453125 198.30078125 C-171.60162422 199.76199905 -172.80797982 201.22408842 -173.98828125 202.70703125 C-176.13837611 205.14380543 -178.62287706 207.14817637 -181.13671875 209.19921875 C-183.10511967 211.03139815 -184.78920558 212.88235245 -186.5327301 214.92211914 C-190.329445 219.28444543 -194.34285386 223.38327913 -198.44116211 227.4609375 C-199.21271637 228.23263779 -199.98427063 229.00433807 -200.77920532 229.79942322 C-203.30356278 232.32308982 -205.83143252 234.8432062 -208.359375 237.36328125 C-210.1207887 239.12282783 -211.88198023 240.88259685 -213.64295959 242.64257812 C-218.25862113 247.25443763 -222.87727884 251.863285 -227.49658203 256.47149658 C-232.21791839 261.18202158 -236.93584788 265.89595812 -241.65429688 270.609375 C-250.89825526 279.84263693 -260.1452868 289.07281469 -269.39453125 298.30078125 C-263.20508363 311.61970479 -263.20508363 311.61970479 -256.5 324.68359375 C-255.64679518 326.28634308 -254.79444274 327.8895464 -253.94287109 329.49316406 C-253.51971619 330.28887817 -253.09656128 331.08459229 -252.6605835 331.90441895 C-250.59778751 335.80884435 -248.58220457 339.73712994 -246.5703125 343.66796875 C-246.1751091 344.43980499 -245.7799057 345.21164124 -245.37272644 346.00686646 C-244.56524759 347.58494729 -243.7581168 349.16320626 -242.95132446 350.74163818 C-240.7786987 354.99182767 -238.60220472 359.24003555 -236.42578125 363.48828125 C-235.99340652 364.33236542 -235.5610318 365.17644958 -235.11555481 366.04611206 C-231.33064613 373.43198674 -227.52407461 380.8064725 -223.70703125 388.17578125 C-218.82479411 397.60195462 -213.95156445 407.03263223 -209.09124756 416.47012329 C-208.0275452 418.53522276 -206.96329189 420.60003748 -205.89892578 422.66479492 C-202.5455292 429.17165149 -199.19755897 435.68117943 -195.86480713 442.19863892 C-194.31290885 445.23270116 -192.75834482 448.26539375 -191.20355225 451.29797363 C-190.46397279 452.74235721 -189.72570192 454.18741169 -188.98883057 455.63317871 C-187.96459959 457.64257528 -186.93588811 459.64962002 -185.90625 461.65625 C-185.32319092 462.79731201 -184.74013184 463.93837402 -184.1394043 465.11401367 C-180.39654134 472.45734047 -180.39654134 472.45734047 -174.08203125 477.23828125 C-171.19819798 477.59919336 -171.19819798 477.59919336 -168.89249897 475.2280817 C-166.14620039 472.00976907 -165.06191516 469.53116851 -163.73954773 465.526474 C-163.50630425 464.83447265 -163.27306076 464.14247131 -163.0327493 463.42950022 C-162.23249181 461.04334381 -161.45401138 458.6505959 -160.67456055 456.25756836 C-160.07838361 454.46590132 -159.48074482 452.67472021 -158.8818388 450.88396358 C-157.49981033 446.74310056 -156.12720902 442.59924341 -154.75988388 438.45350266 C-152.39998687 431.30550443 -150.0130249 424.16673099 -147.62189519 417.02913775 C-143.07493955 403.45619431 -138.54010649 389.87923853 -134.01435852 376.29920959 C-133.7282212 375.44062814 -133.44208388 374.58204669 -133.14727574 373.69744762 C-131.97062179 370.16667518 -130.79402798 366.63588271 -129.61752154 363.10506112 C-127.49562643 356.73704754 -125.37310524 350.36924292 -123.25018883 344.00156975 C-122.94442118 343.08442004 -122.63865353 342.16727032 -122.3236202 341.2223282 C-121.70188203 339.35743352 -121.08014255 337.49253929 -120.45840176 335.62764549 C-114.67377321 318.27658891 -108.89095987 300.92492781 -103.10880258 283.57304757 C-98.17626311 268.77095803 -93.24214656 253.96939497 -88.30688477 239.16821289 C-82.53401756 221.85499353 -76.76214729 204.54144233 -70.99181098 187.22737926 C-70.37368401 185.3726799 -69.75555581 183.51798094 -69.13742638 181.66328239 C-68.83352369 180.75142005 -68.529621 179.83955771 -68.21650914 178.90006318 C-66.10208744 172.55594423 -63.98698167 166.21205362 -61.87159157 159.86825752 C-59.28616286 152.11481031 -56.70184529 144.36099373 -54.11884502 136.60673714 C-52.80777675 132.67095024 -51.49628134 128.73530738 -50.18342209 124.80011749 C-47.14696314 115.69763771 -44.12314978 106.59108917 -41.11466196 97.47932592 C-40.35261375 95.17397212 -39.58830114 92.86937641 -38.82378173 90.56484103 C-37.50203239 86.57799499 -36.18860674 82.58848737 -34.88073089 78.59706967 C-34.38040917 77.07406567 -33.87754206 75.5518953 -33.37203113 74.0306058 C-32.67619316 71.9347715 -31.98972841 69.83609378 -31.305583 67.73641872 C-30.91147801 66.53921686 -30.51737301 65.34201499 -30.11132544 64.10853428 C-29.08635689 61.3716637 -29.08635689 61.3716637 -30.39453125 59.30078125 Z " fill="#FFFFFF" transform="translate(500.39453125,4.69921875)"/>
</svg>
